<svg id="Layer_1" data-name="Layer 1" xmlns="http://www.w3.org/2000/svg" viewBox="0 0 677.34 157.03"><defs><style>.cls-1{fill:#fff;}</style></defs><path class="cls-1" d="M177.31,283.77H193.8V406.68H177.31Z" transform="translate(-177.31 -278.67)"/><path class="cls-1" d="M229.16,406.68V279.86h.17l64.43,91.63-7-1.53,64.43-90.1h.17V406.68H334.9V317.26l1.19,8.33-46.24,65.62h-.34l-47.09-65.62,2.72-7.65v88.74Z" transform="translate(-177.31 -278.67)"/><path class="cls-1" d="M374.51,406.68l53.55-128h1l53.72,128H463.93L423.81,304.51l11.73-7.65L390.83,406.68ZM406,360.1h45.73l5.44,14.28H401.2Z" transform="translate(-177.31 -278.67)"/><path class="cls-1" d="M571.73,422.09l-1.15.29-1.5.4-2.37.69-.06.06-.34.17h-.52l-.52-.11-1.56.17-.29.63-.17.24-.35-.29-1-.29a4.43,4.43,0,0,0-1.55.06l-2.72.75-.8-.18-.75.18-1.45.23-1.78.05-2.2-.57-1.67.23-1.1-.29H547l-.52.06-.93-.06-.57-.06H545a2,2,0,0,0-.58-.11h-.69l-.64-.18-.46-.28v-.06l-.23-.29-.06-.17V423l-.11-.35-.23-.28-.23-.41-.06-.52-.46-.92-.17-.81v-.52l-.18-.58a3.51,3.51,0,0,1-.23-1.38l-.29-.4-.05-.75.05-.75.41-.75.17-.93.12-.4.4-1.21.23-.35.12-.4L542,411l.06-.17.11-.4.46-1.45.35-1,.23-.4.06-.23.11-.52.06-.06.06-.29v-.11l.11-.06.06-.11.06-.23.17-.12v-.06l.12-.4.29-.46.23-.29h0l.29-.52.18-.12a2.69,2.69,0,0,1,.4-.52c.29-.51.4-.92.75-1.5l.23-.69.17-.34.52-.52.12-.35.29-.29-.12-.06-.11-.17.11-.23.12-.06v.06l-.06.29.11-.23.18-.12.06-.11.11-.18-.06-.05.12-.06.63-.87.12-.17L550,396l.06-.34,1.61-2,.06-.41L552,393v-.11l.4-.64.12-.17.05-.12.75-1,.12-.06.06-.18.11-.05.12-.23.23-.24.35-.63.17-.29.58-.58.46-.34.17-.06.52-.63.4-.75.18-.23.34-.18.29-.23.4-.63.29-.23.18-.41.17-.17.17-.35.23-.23-.05-.34.17-.12.4-.11.29-.23h.12l.11-.06c.92-1.1,1.91-2.2,2.94-3.35l.52-.69.64-.58v-.29l.29-.34.11-.18.58-.28.11-.29.29-.23.18-.06.75-.81a2.86,2.86,0,0,1,.57-.58l2.14-2.25.4-.57.17-.35.52-.17.18-.23,2.88-2.95.35-.57.17-.46.06-.41.11-.11.41-.06.17-.12.46-.46.52-.29.41-.34.46-.58.05-.06.29-.4.18-.29.28-.17.24-.52.17-.17.4-.29.35-.06.34-.29.35-.11.12-.12.28-.12a.21.21,0,0,0,.12-.05l.12-.29.17-.41.92-1,.75-.34h.06l.06-.35.11-.4.52-.81.46-.17v-.18l.41-.23.17-.34.46-.52,1.27-1.39.87-.75.69-.4H587l.17.29.06.34-.12.18-.29.52h.06l-.06.05-.11.23.17-.11.06.06-.23.52-.12.28.06.12a3.42,3.42,0,0,1-.92,1.33l-.06.05-.11.35-.18.23V360l-.06.17-.17.06-.63.69-.12-.06-.29.24-.11.34-.69.29-.06.06-.18.23-.23.58-1-.06,0,.06-.35.28.29.06-.06.35-.29.23-.11-.12.05-.23-.17.18-.29.05-.11.18-.18.28v.06l-.17.06-1.21,1-.12.29-.75.58-.28.57-1.27,1.1-.18.29-1.9,1.73-.29.4-.58.46-.17.06-.4.41-.81.28.06.12-.75.75-.35.11-1,1.16-1.21,1.1-1.44,1.5-.69.86-.58.87-1.44,1.5h-.18l-.05.05-1,1.16-.05.17-.46.81h-.24l-.05.17-.23.12-.06.34-.23.29-.23.06-.87.63-.46.47-.46.51-.17.52-.29.29-.35.52-.35.46L559,386l-.29.17-2.25,2.71h.06l-.23.47-.35.23-.92,1.15-.18.4-.28.23-.75.93-.06.17-.12.17-.34.41-.18.46-.11.29-.29.06-.06.23-.17.23-.69.63-.12.17-.06.18-.46.63-.23.29-.46.87-1.15,1.67-.58.52-1.27,2.13-.35.64.06.05v.52l-.06.24-.23.57-.57.41-.64.86v.4l-.11.41-.06.17v.12l-.12.17-.29.17-.57,1.27-.06.69-.23,1-.06.46-.06.41-.23.63-.46,1-.58,1.5c-.05.52-.23,1-.23,1.56l-.05.06h-.06l-.06.52v.57l.06.06-.06.23-.17.87.11,1.38a6.59,6.59,0,0,0,1.21,1.62l.35.11.87.35.23.06.17.11.23.18.06.11.4.06.12.34v.06l.29.17.11.06h.12l1.44.18.34.23.81.17h.29l.12.06.69.17,1.5.23a6.21,6.21,0,0,1,1,.12h1v-.06l.29.06.17.11a11.69,11.69,0,0,1,1.5.12l.17-.06.18.12a5.55,5.55,0,0,1,1,.11l.69-.11,1.1-.12.05.12c.29,0,.58-.06.87-.06l1.15-.23.29.05.46-.23h1.85l2.6-.28.34-.12.23.06,2.6-.41.17-.05.81-.18.4-.11h.64s.06-.06.06,0l.23-.18,1.38-.17.35-.23.69-.06.52-.11,1.79-.29.86-.29.58-.29,1.1-.17.28-.06.18.06.4-.06.17-.06v-.05l.81-.18.35-.23.23.12,1.67-.41.23-.23.58-.17h.69l.81-.17a21,21,0,0,1,2.54-.64l.86-.46.46-.12.58-.05.58-.29.34-.06h.06l2-.4.18-.12L593,416l2-.35a3.09,3.09,0,0,1,.81-.17l4.56-1.27h.05l.18-.11.92-.29.46-.12,1.68-.57.17.05.34-.11.24-.06.28-.17.41-.06,1.33-.69,1.26-.35h.18l1.32-.46.87-.4.23-.12.4.12.18.23-.18.17-.23.12-.4.11a58,58,0,0,1-7.56,2.83l-.06.17-.69.12c-1.67.52-3.4,1-5.13,1.44l-1.21.46h-.58c-.12,0-.17,0-.23.06l-1.33.34-1.21.58-3.06.64-.34.11-1.27.35-.18.05h.23v.12l-.23.12h-.23l.06-.18-.29.18-.4.11-.41.17-.11.18-.46.17-.87.12-.63.23-.35.05h-.17l-.12.06V420H583l.05-.06-.23-.06L582,420l.06-.06-2.14.52-1.79.41-.4.17-2.08.4-.63.18-.52.11-.35.18-.52.11-1.61.17Z" transform="translate(-177.31 -278.67)"/><path class="cls-1" d="M621.8,398l-.23.46c-.05.12,0,.29-.05.46l-.35.58-.4.58-.52.34-.58.58-.23.29-.29.29-.46.34-.12.06a26.11,26.11,0,0,1-3.4,2.43v.11H615l-.64.4V405l-.11.12H614c-.06.05-.06.05-.12.05v.18h-.23l-.46.34h-.06l-.29.29-.4.12-.23.29-.41.28-.23.06-.63.06-.23.12-.35.05h-.11c-.93.35-1.73.7-2.54.93l-.23.17-.18.06-.23.29-.17.05-.4-.11h-.41l-1.09-.06-1-.12v-.05c-.06,0-.18.05-.23.05a3.26,3.26,0,0,1-.87-.23c-.23-.17-1.44-.75-1.5-1.15v-.52l-.17.06-.06-.35.4-1,.41-1,.23-.34.69-.69.41-.29.11-.18,1-.69.87-.86.17-.29.23-.23,1.27-1,.35-.29.28-.06.12-.12.46-.28.12-.18,0,.12,1.39-1,.29-.29.17-.06.52-.34.4-.46.52-.47.81-.28.75-.64.46-.23.52-.29c.58-.34,1.1-.75,1.62-1l-.81-.11a7.44,7.44,0,0,1-1.1.11l-.17.06-.06.06-.17-.06h-.69a15.35,15.35,0,0,1-1.79.17h-.06l-1.33.06-.69-.17-.34-.23-.18-.29.06-.4.46-.7.46-.17.58-.12.58-.05.46.17.86.23a16.08,16.08,0,0,1,2.77.23l.64-.11.92.05,1.1-.17.17.06,1-.12a1.94,1.94,0,0,0,.52-.29l.52-.34.46-.23.17-.06.29-.17.46-.06.52-.06a4.49,4.49,0,0,1,1.21-.06l.41-.05.17.17a1.7,1.7,0,0,1,.64.35l1.61-.18.06-.05.69-.18.87-.06.92-.28.35-.06.57-.06H630l.46-.06.69.06h.06a3.17,3.17,0,0,0,.75-.06c.29,0,.63-.06,1-.06l.23-.05.12-.06h.11l.12.11h.34l.35-.11h.4l.52.06h.12l.4-.06.35.17h.17l.23-.06.46.06.23.06a12.11,12.11,0,0,1,1.62.35l.23.17h.23l.17.23a8.11,8.11,0,0,1,1,.63h.12l.17.18.29.11.17.35.23.35v.17l-.34.29-.17.4-.52.92-.23.35v.06c-.06.06-.12.11-.12.17l-.23.35-.35.11V395l.12-.17v-.12a5,5,0,0,1,.34-.75l.12-.29.4-1c0-.06-.05-.12-.05-.23l-.18-.29-.57-.29-.47-.35-.86-.23a18.48,18.48,0,0,0-3.81-.29h-.86l-.7.06a13.74,13.74,0,0,0-1.5.17c-2.53.18-4.32.41-6,.64l-.11.06-.52.11-.29.17-.92-.05c-.93.11-1.85.29-2.89.4l-.46.17h-.46l-1,.12-.29.17a13.21,13.21,0,0,1,1.5.58H620l.17.17.12.06.23.17.46.29.69.75.17.41.29.69-.05,1A4.83,4.83,0,0,1,621.8,398Zm-1.38-.4v-.35l.23-.52.06-.81v-.05l-.29-.58-.35-.35-.4-.29-.46-.28-.41-.18-.51-.17-.47-.29-.34-.11a.21.21,0,0,1-.12-.06c-.75.46-1.44,1-2.48,1.73l-.52.4-.4.35-2.08,1.21-.58.4-.4.24-1.15.75-.06.05-.29.23-.86.47-.7.46-.63.4-.29.23-.81.58-.06.06-.63.75-.52.69-.29.4c-.06,0-.06.06-.11.06a5.09,5.09,0,0,0-.93,1.44v.12l-.05.23-.12.29v.34l-.06.12-.05.17a1.58,1.58,0,0,0,.46,1.1h.11l.35.23c.11,0,.23.06.34.06a8.38,8.38,0,0,0,4.22-.7,21.41,21.41,0,0,0,2.48-.92l0-.11h.18l.69-.35.46-.46,1-.52.23-.06H614l1.79-1.21.17-.17.12-.06c.46-.35.92-.75,1.38-1.15l.17-.24.12-.17.34-.29.35-.4.17-.29.23-.06.12-.23.17-.17.12-.17h.11A8.76,8.76,0,0,0,620.42,397.57Zm2.25-6.29c-.4-.23-1.15.06-1.73.29Z" transform="translate(-177.31 -278.67)"/><path class="cls-1" d="M642.69,392l-.12.69.06.35-.11.11v.12l-.12.11-.23.18-.23.23-.29.34-.29.35v.11h-.06l-.23.64-.23.4-.34.75-.18.29-.05.12-.06.29v.05l-.06.06-1,2.77-.06.46,0,.06-.06.63-.12.24-.34,1.15-.12.86-.06.64c.24.58,1,.23,3-1.5l.29-.29.11-.12.46-.69.46-.57.35-.52.17-.12,1.21-1.56.24-.46.17-.11h.06v-.23l.28-.29.06-.18.46-.4.58-.81.4-.46.18-.23.06-.17.34-.35.29-.46.46-.4.06-.23.4-.35h.12a17.59,17.59,0,0,1,1.84-1.79l.18-.35.81-.51.17.05a3.1,3.1,0,0,1,.52-.17c.29,0,.34.12.4.35l.23.17-.23.23v.63l.06.41-.17.34v.41l-.06.69-.41.52v.29l-.11.17c-.29,1-.64,2-1,2.94l-.17.52.11.23v.18l-.29.17-.11.4-.06.18-.06.17-.52,1.9-.11.87-.23.4-.06.06-.06.52.06.11.06.76v1.09l.11,1,.06.46a3.4,3.4,0,0,0,.58.81c.52.52.8.69,1.55.4l.29-.23.52-.4.46-.17.7-.29.28-.17c1-.64,2.08-1.27,3.12-2l.11-.11.87-.58.75-.69.29-.06.11-.11.29-.46.52-.24.29-.23.58-.34,1.5-1.21.23-.58.92-.52.23-.4.23-.06.58-.29c.35-.29.69-.63,1-.92h-.06l.4-.41,1.73-1.44,1.62-1.56.75-.52,1-1,.4-.28,1-.87.41-.29,1.27-1.27.34-.52.52-.46.35-.17a13.36,13.36,0,0,1,1-1l1.67-1.5.12-.17.75-.64h.17v-.17l.29-.17.17-.35.17-.17h.06l.64-.69.52-.81v-.06c0-.06.05-.11.05-.17s0-.06.12-.12L681,383l.29-.23.17-.06.11.12-.05.23-.12.17v.06a3.74,3.74,0,0,1-.4.8l-.52,1-.18.34-.11.46-.12.12-.4.06-.23.17-.35.23-.46.4-.46.52-.29.35-.75.58-.58.52-.11.05-.75.64-.23.29-.17.05-.24.29v.06l-.28.23-.12.17-1.15,1.16-.29.17-.23.29-.75.69-.18.06-.46.4-.46.35-2.83,2.77,0,.06c-.93.86-1.85,1.67-2.83,2.48-.75.63-1.62,1.5-2.71,2.42l-.46.52-.93.58-.05.05-.64.81-.4.35-.52.4-.69.46-.47.23-.4.35-.11.06c-.93.63-1.79,1.27-2.54,1.79l-.06.29h-.35c-.86.51-1.73,1-2.48,1.38-1.73.75-1.9,1.85-3.17,1.33H649l-.18-.41a2,2,0,0,1-.81-1.21l-.11-.23-.29-.35v-.17l.23-.29v-.17a10.7,10.7,0,0,1,.12-2.71l.11-.64.12-.46.06-.29-.18-.52.06-.23.12-.46.11-.23.06-.17v-.41l.11-.34v-.41l.18-.28-.06-.18.06-.11v-.18l.29-.28-.12-.29.35-1.16v-.29l.17-.57v-.58l.4-1.5v-.86l-.17-.47-.52.58-.11.23-.35.64-.69.63-.52.87-.29.34-.4.41-1,1-.87,1-.11.34-.18.47-.23.17-.46.4-.17.23-.18.23,0,.06-.41.29-.52.69-.46.46-.29.52-.17.18-.23.4-.12.17,0,.35-.12.17-.4.12-1.27.81-1.1.52-.34-.06-.75-.18v.06l-.06-.06c-.17-.05-.23-.11-.17-.28l.05-.64-.05-.4v-1l.11-.4-.11-.41.05-.17.35-.23.11-.23.18-.35.11-.23.06-.12.06-.23H638l.05-.11,1-2.48,0-.06v-.12l.11-.17.18-.4-.06-.35v-.29l.17-.23.12-.46.11-1,.23-.46v-.18l-.06-.74h.12l-.12-.12v-.92l.18-.41-.18-.05.18-.06.06-.18.05-.17.41-.4h0l.52-.06.64.23.23-.17.23-.12h.29l.23.17Z" transform="translate(-177.31 -278.67)"/><path class="cls-1" d="M701.71,368l-1.27.81-.12.29v.34l-.63.41-.58.05h-.35l-.4.35-.06.12-.17.05-.23.52-.06.64-.17.34.06.35-.06.17-.12.18-.11.11-.46.23-.93.52-.52.29h-.23c.12.29-.23.75-.17,1.1.35.05-.06.4-.12.57a8.72,8.72,0,0,0-1.67-.29l-.23-.23a3.07,3.07,0,0,1,.17-2.36c0-.23.06-.52.06-.75l.81-.52c.4-.35.58-.87,1-1.21a4.81,4.81,0,0,0,.75-.81l1.15-.35.18-.11.4-.52.46-.4.69-.35.52-.17.29-.06,1.16-.35.52-.23.23-.06c1-.52,2.13-.8,3.17-1.27l.11-.17c.06,0,.06-.06.12-.06l.17-.11.58-.12.06.06c.81-.29,1.61-.52,2.36-.86.52-.12,1-.35,1.5-.47l.35-.17.52-.23.4-.23.52-.23.35-.12.23.06.58.06.28-.17.47-.12.34.06,1.16-.23c.69-.23,1.38-.29,2.07-.46l.29-.12.35-.12.4-.11H718l.46-.06h.17l.4-.06,1.16-.23.34-.17.58-.23H722l.35-.17.58-.18.4-.05h1.16l.63-.06.23-.23.35.11.86-.17h.18l.57-.29H728c.17,0,.34-.06.52-.06a3.88,3.88,0,0,1,.75-.11h.4a3.7,3.7,0,0,1,.92,0c.18,0,.29-.06.46-.06s.35.06.52.06l.18.06.57.05c.75-.05,1.5-.05,2.25-.05l.93-.12h.46l.58-.06h.34l.46-.11c.12,0,.18-.06.29-.06l.58.17.58.12h0c1.39-.06,2.77.17,4.16.17l.92-.35.12-.05.57-.06.87.17.92-.17h.4l.58.11.12.06.57.06.41.06.46.06c.46.11.92.34,1.38.46h.12l.46.17a2.49,2.49,0,0,1,.69-.17l.12-.12.11.12.23.29,1.1.11c.06,0,.12.06.17.06l.06.06a34.78,34.78,0,0,1,3.52.4c.87.17,1.67.12,2.54.35l.52-.06h.63l.58.11h.29a3,3,0,0,0,1,.29l.35.12.23-.06c.63.06,1.15.35,1.79.4h.05c1.85.35,3.7.75,5.54,1.22l1-.12.18.17c.17,0,.4.06.57.06l.12.06h.34l.35.17h.35a2.49,2.49,0,0,0,.69.17l.46.41c.12,0,.17.06.29.06l.29.23.4.29.29.11-.12-.11.24-.06.34.06.92.46h.06l.23.11.06.12.29.17.11-.23v.12l0,.05.23.23.4-.05.12.05.23.41,1,1v.05l.4.47.35.28.52.58.17-.11.29.46.29.34.23.29.23.17v.29l0,.12.24.34-.06.06h.17v.12l.12.06.05.05.06.12L783,371h0l-.17.12.06.11.06.06v.4l.11.23-.06.18v.11l0-.06v.29l0,.06,0,.12-.23.23-.12.23v.23c0,.52-.52.46-.63,1a10.93,10.93,0,0,1-3.18,4.38l-.52.52-.34.23-1.1,1.21-.4.12-.58.23-.58.29-.28.11-.41.29-.11.06-.7.4-.05.06-.47.4-.51.06-1.16.58-.06.06-.11.29-.17.11-.12.12-.06.17-.52.17.12.12-.06.11-.11-.23-.24.06-.17.12-.17.05-.06-.05-.52.17-.52.06h-.17a22.52,22.52,0,0,1-2.42.92l-.35.29-1,.46h-.29l-.06.06a4.66,4.66,0,0,1-.81.23h-.11c-.46.17-.92.46-1.39.63l-.92.18-1.09.4a16.15,16.15,0,0,1-1.79.4l-.23.12-.18.06h-.4l-.35.05-.29.06-.4.23c-.46,0-1,.06-1.44.06h-.29l-.35.35-.11.11-.23.35-.06.17-.12.58-.11.17.06.17-.18.52v.29l-.17.12.17.29v.05l0,.12,0,.06,0,.17-.06.06v.11l.06.06.4.12-.06.4.06.17.17.12.06.11v.12l-.23.29.23.69-.11.23a7.4,7.4,0,0,0,.4,1,4.06,4.06,0,0,0,.75,1c.46.52.46,1.85,1,2.36l.12.24.28.52.06.11.29.46c.46.69,1.15.75,1.67,1.44s.75,1.73,1.27,2.37a4.27,4.27,0,0,0,.52.86,12.06,12.06,0,0,1,1.1,1.27l.34.29a12,12,0,0,0,.81,1l.29.46a16.78,16.78,0,0,1,1.27,1.62l.46.46.12.06.4.46.17.17.23.58c.12.29.7.46.87.75a21,21,0,0,0,1.44,1.9l.23.18.81,1v.23h.12l.34.69.35.29.86.86h.06l.35.18.46.69.17.11.58.23,1.61,1.22.06.17.23.58.29.23.12.11.17.29c.92.81,1.9,1.79,2.83,2.66l.34.17.29.11.06.23.52.35V425l.11.17H779l.34.29c.41.58,1.1.81,1.56,1.27l2.25,2.13.4.06.12.12c.75.69,1.61,1.27,2.36,2h.75a3.83,3.83,0,0,0,.64.69l.11.29.12.34.4.41h.18l.17.11c.17-.11.4.06.63.06h.87l.52.06.46-.12.35-.05.17.11.12.06.4.34a2.43,2.43,0,0,0,.75.81l.4.41c0,.17-.05.28-.05.46l-.41.34-.46.23c-.23,0-.4.06-.63.06v-.11c-.24,0-.47-.06-.7-.06l.12.06c-.23,0-.52.05-.75.05a2.76,2.76,0,0,1-.69-.11h-.12l-.46-.29-.29.06-.23-.29v.29l-.29.06h-.46l-.23-.18-.06-.29-.34-.57-.06-.06-.46-.4-.23-.29-.06-.06-.35-.29a2.07,2.07,0,0,1-.69-.75l-3.29-3.4-.46-.29-2-1.67c-.29-.06-.35-.47-.52-.64l-.12-.06-.46-.34-.46-.41a5.58,5.58,0,0,1-.92-.75v-.11l-.35-.46a6.23,6.23,0,0,1-.69-.52c-.58-.58-1.16-1.21-1.79-1.73a7.66,7.66,0,0,1-.63-.64l-.29-.4-.29-.29c-.06,0-.12-.06-.17-.06l-.29-.34L772,420l-.24-.46-.23-.23a3.35,3.35,0,0,1-.52-.7l-.17-.05-.52-.46c-.52-.35-.69-.87-1.15-1.27l-.35-.12-.06-.4a6.52,6.52,0,0,0-.92-1,5.17,5.17,0,0,1-.81-.81l-.34-.11-.52-.64c-.23-.34-.69-.58-.93-1l-.51-.23-.29-1-2.14-2.54c-1.44-1.84-2.94-3.69-4.27-5.65l-.05-.06-.41-.63-.23-.23L757,402l-.29-.46-.46-.23-.46-.52-.06-.35v-.11l-.29-.35-.35-.52V399l-.17-.06-.58-1.15-.57-.69-.58-.64-.41-.46v-.92l-.28-.12-.12-.23v-.23h-.06l-.17-.12-.12-.23-.11-.05-.12-.18-.11-.11-.17-.06-.18-.52-.11.06-.12-.06.23-.06v-.29l-.17-.11v-.23l.06-.06-.12-.52-.06-.52.06-.23v-.06l-.06-.11-.23-.17.18-.12h0v-.29l.12-.35.46-.23.35-.28.52-.41c1.67-1.67,4.32-1.5,6.52-2a8.8,8.8,0,0,1,1.27-.29l.4-.23.52-.34.63-.23.58-.29.35-.23.52-.18c.34-.17.69-.23,1-.4l.23-.06c.58-.34,1.22-.52,1.79-.92h.06l.35-.23.63-.35.52-.34.87-.29.4-.35.17-.06h.35l.23-.11.52-.23a3.48,3.48,0,0,0,.69-.17c.29-.18.35-.52.64-.64l.34-.17,2.14-.41,1-.63a4,4,0,0,1,.8-.23l.81-.92.12-.12a2.75,2.75,0,0,0,.52-.64l.28-.17.24-.06L779,377l.11-.17.47-.47.11-.23.23-.28.23-.35.35-1,.34-.87.18-.34.23-.35v-.4l.17-.12a3.74,3.74,0,0,0-.34-1.55l-1-1.16-.35-.06-.35.06-.51-.52-.12-.57-.12-.35-.4-.29-.11-.06-.06-.11c-.06,0-.06-.06-.12-.06l-.46-.12-.63.06-.41-.11-.29.17-.17-.06-.23-.06-.12-.11-.28-.4-.7-.81-.4-.46v-.12l-1.67-.63h-.06l-.12-.06-.57-.17-.58-.12h-.06l-.57-.23-.41-.06a6.81,6.81,0,0,1-1.56-.52c-.46-.11-.92-.11-1.38-.23h-1.27l-.23-.06-.58-.17-.34-.17h-.06l-.46.11-.58-.11h-.23l-1.16-.12-.46-.11-.11-.06-.46-.29-.47-.11-.46-.06-.11.06-.41-.12c-.75-.12-1.44-.23-2.19-.29l-.52.06h-.57l-.47-.12h-.75L755,362l-.58-.23c-.17,0-.35-.06-.52-.06l-.35.12-.57-.29c-3.35-.29-6.75-.64-10.1-.81a13.22,13.22,0,0,0-1.5.29l-.81-.23a8.69,8.69,0,0,0-1.32-.23h-1.16l-.29.05-.63.23-.12.06-.57.06a2.49,2.49,0,0,0-.69-.17l-.58-.06-.46-.12h-.06a9,9,0,0,0-1.27.06l-.58.12-.46-.06c-.86.06-1.67.11-2.54.11l-.17.06a11.65,11.65,0,0,0-1.44.12h-.35l-.52.11a5.32,5.32,0,0,1-1,.06l-.34.12c-.18,0-.41-.06-.58-.06-.64,0-1.27.29-2,.29l-.58.17c-.17,0-.4-.06-.58-.06a3.26,3.26,0,0,0-.75.12c-.63.17-1.32.23-2,.46h-.23c-.06,0-.06.06-.11.06s-.12-.06-.18-.06h-.4c-1.21.35-2.48.4-3.69.81-1.91.4-3.75.92-5.6,1.5h-.12l-.34.11-.58.18-.4.28-.52.29-.17.18-.52.28-1,.58a5,5,0,0,1-.75.4h-.06l-.58.12c-.29,0-.63.06-.92.06a3.73,3.73,0,0,1-.69.23Zm35.54,22.56c.69-.92,1.44-1.85,2.25-2.77l1-1.5,0-.06.47-.58.51-.74a20.19,20.19,0,0,1,1.5-2l1.1-1.32.75-.87.17-.4.35-.52.12-.29.23-.52v-.17l-.12-.06v-.12h.12l.17-1.15a5.38,5.38,0,0,1,.17-1l.29-.34c.23-.41.4-.81.64-1.16a2.7,2.7,0,0,1,1-.69l.52.17.4.23.06.41-.06.4H749l.11.12-.17.11a1.48,1.48,0,0,0-.12.41l-.46.57-.75,1.27-.52,1.67-.63.52-.29.29-.12.29-.51.46a3.05,3.05,0,0,1-.35.7l-.46.51.29-.11v.46l-.35.4h-.17l.17-.4-.52.46-.35.69-.46.29-.46,1-.4.81a7.08,7.08,0,0,1-.69.63l-.58.93-.29.4-.4.52-.64.52-.4.29L736,393.7l-.29.46c-.23.23-.35.52-.52.7l-.12.17-.8,1.09-.29.29-.12.23c-.4.64-.92,1.1-1.38,1.74l-.29.17-.29.29-.12.05-.28.35v.29l-.35.4h-.06l-.34.46,0,.06-.23.35c-.57.86-1.09,1.61-1.55,2.42l-.24.52-.11-.06-.06.23-.29.64v.17l-.46.4-.4.58.11.46-.29.12c-.34.58-.86,1-1.21,1.61l-.34,1-.23.58-.47.4,0,.47c-.46.57-.75,1.21-1.21,1.84l-.18.64-.63.86a4.11,4.11,0,0,1-.52,1.1c-.52.69-.81,1.5-1.33,2.19-.23.52-.63,1-.81,1.44l-.17,1.1-.63.92-.12.17-.23.7-.35.05-.11.29a7.85,7.85,0,0,1-.81,1l-.4.17a1.61,1.61,0,0,1-.52.7l-.06.34-.12-.17,0,.12h-.41l-.29-.58a22.75,22.75,0,0,1,1.22-4.44h-.06l-.35-.24-.06-.4.06-.29h-.06l0-.17.17-.12H717l.23-.34.23-.52.29-.4.34-.64.64-1.56.57-.52.29-.28,1-.81c.81-1.33,1.85-2.54,2.71-3.93l.12-.34.34-.52.06-.23.4-.23.24-.29,0-.06.06-.35.06-.05.17-.12,1.21-1.73.06-.23.81-.92.4-.64a16.93,16.93,0,0,0,1.21-1.67l.18-.29.75-.75c1.67-2.13,3.4-4.15,5-6.29l.28-.52.29-.57,1.5-1.73.35-.35Z" transform="translate(-177.31 -278.67)"/><path class="cls-1" d="M780.86,402v.29l-.29.29-.17.23c-.06,0-.06.06-.06.12v.17l-.23.34-.06,1.45a1.69,1.69,0,0,0,.12,1.15c.34.4.17.4,1.61.87l1,.23h.75l.87-.12,4.21-.92.81-.35,2.25-.75.46-.29.23-.11h.12l3.46-1.44h.23l.4-.23.52-.12,1.91-.69.23-.06c2.07-.87,2.88-1.39,4.9-2.31l1.27-.46.06-.12.34-.17,1-.34,1.1-.47V398h.17l.69-.35.06-.11,3.12-1.91.29-.05a12.06,12.06,0,0,0,1.26-.87.22.22,0,0,1,.35.06v-.06l.23-.17.23.05.18.52-.29.12-.52.17-.29.12-1.33.92-.29.41h-.28l-.24.11c-.51.35-1.09.63-1.61.92l-.06.06-.4.23-.23.18h-.18l-1.84.92-.06.11-.23.06-.46.23-.12.06-.81.52-2.19.92c-.69.35-1.38.75-2.07,1l-.18.17-2.88,1.39-.23.17-.12-.17-.63.4-.7.12-.46.23h-.06c-.75.34-1.5.63-2.25.92l-.86.46-1.79.87-.46.11-.69.12-1,.29-.58.06-.23.11-.23.17-.75.18h-.12a14,14,0,0,1-2.31.52l-.17.17-.29.06h.06l-1.15.23-.35-.12-.63.23-1.39-.23-1.27-.63-.58-.81-.28-.75-.18-.81v-1l.06-.11-.06-.12v-.4l.41-1.45.4-.69.46-1,.35-.57.11-.12.18-.46.34-.29.18-.4.34-.52.18-.17.63-.29.23-.29.4-.18.47-.34.11-.06.58-.52.52-.4.4-.58.23-.23.29-.35.23-.17.35-.11.11-.18.29-.29.46-.17.29-.11a48.1,48.1,0,0,1,4-2.72l.12-.11.58-.4.75-.29s.11,0,.11-.06l.69-.46.41-.23.17-.06.81-.12c.63-.23,1.27-.46,1.9-.63l.52-.29h.58l.34-.12.18.12a9.29,9.29,0,0,1,1.32.06l.06-.06.18-.06.11.06.17-.06.06-.06.35.12v-.06h.06l-.06.12.17.11h.17l.06.12h.06l.35.17,0,.06c.29.23.52.4.58.69l.17.06,0,.11h0l0,.06v.29l0,.23-.11.41-.12.17v.34l-.23.87-.46.75-.58.58-.63.4-.52.35-2,1-.29.23-.4.11a37.77,37.77,0,0,1-4.21,2.48l-.06.12-1.68.81-.75.52-1.5.63-1.09.4-1.56.29-.92.06h-.41l-.34-.17-.12-.29.12-.18.4-.8.81-.75.75-.29h.46l.4.11.47.12H788l.69-.12.75-.28h.23l.11-.18,1.68-.57,1.56-.75.75-.41.28-.34.75-.29.12-.23.86-.29.24-.23.75-.58,2.59-2.19.23-.29.12-.4.11-.18.29-.86-.06-.06,0-.12-.12-.28-.29-.35-.4-.17-.4-.12h-.64l-.4.06-.23-.06a21.66,21.66,0,0,0-4.22,1.67l-.69.35-.17.17-.29.23-.23-.05c-.06.05-.06.05-.12.05v.12l-.34.12-.12.11h-.11l-1.27.69-.64.52-.4.41-.58.17-.23.11c-.52.35-1,.75-1.5,1.16l-.29.34-.75.7-.4.4-.64.58-.8.81-.81.92-.17.17-.35.52-.4.58-.58.57Z" transform="translate(-177.31 -278.67)"/><path class="cls-1" d="M854.45,380.28v.2l.1.31-.2.3-.1.4.2.4h.1l-.3,1.41-.81.51-.5.3-.91-.5-1.51-.81-.7-.2-.2-.4h-.41l.2-.51v-.8l.21-.61-.11-.91v-1l-.2-.2-.1-.41-.7-.3H848l-.8-.3-1.31-.1c-3.13.3-1.82-.51-5.55.5l-1.2.61-.41-.11-3,.61-2.12,1-1.71.7-1.11.61-.8.3-1.21.3-1.72.81-.5.2-2.72,1.31-1.51,1-.1.2-1.62.91-.6.5-.4.3-.61.4-.6.61-.61.91-.8.5-.51.5-1.11.71a3.93,3.93,0,0,0-1,1.91c-.31,1,0,.31.5.91l.3.51.71.4.5.8.3.51h.1c.61.4,1.21.6,1.72.9l1.31.51v.2l1.71.71.91.2.5.4h.1l.1.1,2.62,1h1.11l.81.2.8.5.1-.1.21.2.4.31,1.91.8.91.1.61.31h2l.5.3,1.42.2,1.81.4.5.41,1.72.6.6,1,.2.91-.1.2-.1.4-.4.5-.71.61-1.41.6h-.5l-.61.41-1.31.4-.3-.1-1.11-.1-2.42.6-4.43.3h-1.31l-4,.21H821.4l-1.31.1-1.71-.1-1.21.3-1.51.3-2.62-.5h-1.62l-1,.1-1.82.3H808l-1.41.3H806l-2,.51-1.51.5-.81-.1-1.11.1-2.72.6-.3.11-1.11.2-.2-.1-.1.1h-.41l-.4.2-.4.1-.2-.2v-.2h-.1l.1-.1-.1-.11.2-.2.2-.1h.1l.4-.4,3-.61,1.1-.3.21.1,1.41-.3,1-.2h.31l2.82-1.21h1l.8-.2,1.51.2,1.11-.1.81-.2,2.11-.2,1.72-.2,1.51-.11,2.12-.2.3.1h1.21l.7-.3.3.1c.51,0,1-.1,1.62-.1l.9-.4,2.32-.2,1.71-.41,3-.1.3.1.6-.2h1.11l.91-.5,1.71-.3-.5-.21-.3-.3-1.11-.2-1.31-.3-1.51-.61-.1-.3-.41-.1h-1l-.6-.7-2.52-1-.4-.2-.71-.31-2.52-1.21h-.1l-.1-.1a21.75,21.75,0,0,1-4.23-1.71h-.1v-.1l-.61-.3-.5-.1-1.21-.51-.3.1-.3-.6h-.51l-1-.71-1.2-1.81.1-1.51.1.4a3.42,3.42,0,0,1,.6-1.21c.2-.4.61-.7.81-1.11l-.1-.1,1.31-1.91.7-.81h.2l.41-.7.6-.41.51-.7.6-.41.4-.4,1-.3h.1l.3-.4.61-.31h.1l2-1.21.91-.5.91-.81.3-.2.61-.5.4-.3.2-.51.4-.2h.71l.7-.1,2-.6,1.31-.21.6-.1.31-.1,1.71-.5.3-.2a4.71,4.71,0,0,0,2.32-.91l.71-.5h.4l1.11.1.5-.2.5-.1a1.81,1.81,0,0,0,.71-.11,24,24,0,0,1,3.43-.6l.6-.2.81-.3.4-.21h1.41l.71-.2,1.71.31.7.2h.31l.1.1,1,.2.3-.1,1.31.4,1,.71.31.4.2.4c.2.51.3,1.11.5,1.82h.2l-.1.5Z" transform="translate(-177.31 -278.67)"/></svg>